<svg width="318" height="318" viewBox="0 0 318 318" fill="none" xmlns="http://www.w3.org/2000/svg">
<rect width="318" height="318" fill="#1E1E1E"/>
<rect width="318" height="318" fill="white"/>
<path d="M20.82 24H26.64V26H23.02V29.9H25.86V31.9H23.02V38H20.82V24ZM27.695 24H30.955C32.0883 24 32.915 24.2667 33.435 24.8C33.955 25.32 34.215 26.1267 34.215 27.22V28.08C34.215 29.5333 33.735 30.4533 32.775 30.84V30.88C33.3083 31.04 33.6817 31.3667 33.895 31.86C34.1217 32.3533 34.235 33.0133 34.235 33.84V36.3C34.235 36.7 34.2483 37.0267 34.275 37.28C34.3017 37.52 34.3683 37.76 34.475 38H32.235C32.155 37.7733 32.1017 37.56 32.075 37.36C32.0483 37.16 32.035 36.8 32.035 36.28V33.72C32.035 33.08 31.9283 32.6333 31.715 32.38C31.515 32.1267 31.1617 32 30.655 32H29.895V38H27.695V24ZM30.695 30C31.135 30 31.4617 29.8867 31.675 29.66C31.9017 29.4333 32.015 29.0533 32.015 28.52V27.44C32.015 26.9333 31.9217 26.5667 31.735 26.34C31.5617 26.1133 31.2817 26 30.895 26H29.895V30H30.695ZM38.9414 38.2C37.8614 38.2 37.0347 37.8933 36.4614 37.28C35.8881 36.6667 35.6014 35.8 35.6014 34.68V27.32C35.6014 26.2 35.8881 25.3333 36.4614 24.72C37.0347 24.1067 37.8614 23.8 38.9414 23.8C40.0214 23.8 40.8481 24.1067 41.4214 24.72C41.9947 25.3333 42.2814 26.2 42.2814 27.32V34.68C42.2814 35.8 41.9947 36.6667 41.4214 37.28C40.8481 37.8933 40.0214 38.2 38.9414 38.2ZM38.9414 36.2C39.7014 36.2 40.0814 35.74 40.0814 34.82V27.18C40.0814 26.26 39.7014 25.8 38.9414 25.8C38.1814 25.8 37.8014 26.26 37.8014 27.18V34.82C37.8014 35.74 38.1814 36.2 38.9414 36.2ZM43.7692 24H46.9092L48.3092 34.02H48.3492L49.7492 24H52.8892V38H50.8092V27.4H50.7692L49.1692 38H47.3292L45.7292 27.4H45.6892V38H43.7692V24ZM54.5309 28.26H56.6509V30.38H54.5309V28.26ZM54.5309 35.88H56.6509V38H54.5309V35.88Z" fill="black"/>
<path d="M23.68 99.2C22.6133 99.2 21.8067 98.9 21.26 98.3C20.7133 97.6867 20.44 96.8133 20.44 95.68V94.88H22.52V95.84C22.52 96.7467 22.9 97.2 23.66 97.2C24.0333 97.2 24.3133 97.0933 24.5 96.88C24.7 96.6533 24.8 96.2933 24.8 95.8C24.8 95.2133 24.6667 94.7 24.4 94.26C24.1333 93.8067 23.64 93.2667 22.92 92.64C22.0133 91.84 21.38 91.12 21.02 90.48C20.66 89.8267 20.48 89.0933 20.48 88.28C20.48 87.1733 20.76 86.32 21.32 85.72C21.88 85.1067 22.6933 84.8 23.76 84.8C24.8133 84.8 25.6067 85.1067 26.14 85.72C26.6867 86.32 26.96 87.1867 26.96 88.32V88.9H24.88V88.18C24.88 87.7 24.7867 87.3533 24.6 87.14C24.4133 86.9133 24.14 86.8 23.78 86.8C23.0467 86.8 22.68 87.2467 22.68 88.14C22.68 88.6467 22.8133 89.12 23.08 89.56C23.36 90 23.86 90.5333 24.58 91.16C25.5 91.96 26.1333 92.6867 26.48 93.34C26.8267 93.9933 27 94.76 27 95.64C27 96.7867 26.7133 97.6667 26.14 98.28C25.58 98.8933 24.76 99.2 23.68 99.2ZM28.2614 85H30.4614V90.7H32.8214V85H35.0214V99H32.8214V92.7H30.4614V99H28.2614V85ZM36.6598 85H38.8598V99H36.6598V85ZM40.5075 85H43.7475C44.8408 85 45.6608 85.2933 46.2075 85.88C46.7542 86.4667 47.0275 87.3267 47.0275 88.46V89.84C47.0275 90.9733 46.7542 91.8333 46.2075 92.42C45.6608 93.0067 44.8408 93.3 43.7475 93.3H42.7075V99H40.5075V85ZM43.7475 91.3C44.1075 91.3 44.3742 91.2 44.5475 91C44.7342 90.8 44.8275 90.46 44.8275 89.98V88.32C44.8275 87.84 44.7342 87.5 44.5475 87.3C44.3742 87.1 44.1075 87 43.7475 87H42.7075V91.3H43.7475ZM53.1455 87H50.8455V85H57.6455V87H55.3455V99H53.1455V87ZM61.8125 99.2C60.7325 99.2 59.9058 98.8933 59.3325 98.28C58.7592 97.6667 58.4725 96.8 58.4725 95.68V88.32C58.4725 87.2 58.7592 86.3333 59.3325 85.72C59.9058 85.1067 60.7325 84.8 61.8125 84.8C62.8925 84.8 63.7192 85.1067 64.2925 85.72C64.8658 86.3333 65.1525 87.2 65.1525 88.32V95.68C65.1525 96.8 64.8658 97.6667 64.2925 98.28C63.7192 98.8933 62.8925 99.2 61.8125 99.2ZM61.8125 97.2C62.5725 97.2 62.9525 96.74 62.9525 95.82V88.18C62.9525 87.26 62.5725 86.8 61.8125 86.8C61.0525 86.8 60.6725 87.26 60.6725 88.18V95.82C60.6725 96.74 61.0525 97.2 61.8125 97.2ZM66.6403 89.26H68.7603V91.38H66.6403V89.26ZM66.6403 96.88H68.7603V99H66.6403V96.88Z" fill="black"/>
<path d="M20.3 148H22.42L23.4 158.76H23.44L24.48 148H26.88L27.92 158.76H27.96L28.94 148H30.84L29.42 162H26.68L25.68 152.56H25.64L24.64 162H21.72L20.3 148ZM31.9528 148H37.9528V150H34.1528V153.7H37.1728V155.7H34.1528V160H37.9528V162H31.9528V148ZM39.2184 148H41.4184V162H39.2184V148ZM46.1861 162.2C45.1194 162.2 44.3061 161.9 43.7461 161.3C43.1861 160.687 42.9061 159.813 42.9061 158.68V151.32C42.9061 150.187 43.1861 149.32 43.7461 148.72C44.3061 148.107 45.1194 147.8 46.1861 147.8C47.2528 147.8 48.0661 148.107 48.6261 148.72C49.1861 149.32 49.4661 150.187 49.4661 151.32V152.52H47.3861V151.18C47.3861 150.26 47.0061 149.8 46.2461 149.8C45.4861 149.8 45.1061 150.26 45.1061 151.18V158.84C45.1061 159.747 45.4861 160.2 46.2461 160.2C47.0061 160.2 47.3861 159.747 47.3861 158.84V156.1H46.2861V154.1H49.4661V158.68C49.4661 159.813 49.1861 160.687 48.6261 161.3C48.0661 161.9 47.2528 162.2 46.1861 162.2ZM50.8786 148H53.0786V153.7H55.4386V148H57.6386V162H55.4386V155.7H53.0786V162H50.8786V148ZM60.997 150H58.697V148H65.497V150H63.197V162H60.997V150ZM65.8591 152.26H67.9791V154.38H65.8591V152.26ZM65.8591 159.88H67.9791V162H65.8591V159.88Z" fill="black"/>
<line x1="20" y1="73.5" x2="298" y2="73.5" stroke="black" stroke-width="3"/>
<line x1="20" y1="135.5" x2="298" y2="135.5" stroke="black" stroke-width="3"/>
<line x1="20" y1="176.5" x2="298" y2="176.5" stroke="black" stroke-width="3"/>
<path d="M87.972 32.716H103.992V33.904H87.972V32.716ZM95.244 31.024H96.666C96.108 34.966 94.704 37.432 88.332 38.458C88.224 38.116 87.918 37.576 87.684 37.288C93.66 36.424 94.776 34.372 95.244 31.024ZM96.936 33.112C97.998 35.614 100.482 36.856 104.334 37.234C104.028 37.54 103.686 38.116 103.506 38.494C99.438 37.936 96.954 36.424 95.694 33.328L96.936 33.112ZM91.518 26.65V28.018H100.608V26.65H91.518ZM91.518 28.99V30.376H100.608V28.99H91.518ZM91.518 24.31V25.678H100.608V24.31H91.518ZM90.186 23.302H101.976V31.402H90.186V23.302ZM95.406 21.88L96.828 22.078C96.522 22.834 96.198 23.536 95.928 24.058L94.686 23.842C94.938 23.284 95.262 22.438 95.406 21.88ZM105.972 32.716H121.992V33.904H105.972V32.716ZM113.244 31.024H114.666C114.108 34.966 112.704 37.432 106.332 38.458C106.224 38.116 105.918 37.576 105.684 37.288C111.66 36.424 112.776 34.372 113.244 31.024ZM114.936 33.112C115.998 35.614 118.482 36.856 122.334 37.234C122.028 37.54 121.686 38.116 121.506 38.494C117.438 37.936 114.954 36.424 113.694 33.328L114.936 33.112ZM109.518 26.65V28.018H118.608V26.65H109.518ZM109.518 28.99V30.376H118.608V28.99H109.518ZM109.518 24.31V25.678H118.608V24.31H109.518ZM108.186 23.302H119.976V31.402H108.186V23.302ZM113.406 21.88L114.828 22.078C114.522 22.834 114.198 23.536 113.928 24.058L112.686 23.842C112.938 23.284 113.262 22.438 113.406 21.88ZM92.472 46.382H104.226V47.606H92.472V46.382ZM94.02 52.34H102.552V53.51H94.02V52.34ZM94.02 55.382H102.552V56.552H94.02V55.382ZM97.674 43.88H98.952V60.422H97.674V43.88ZM93.372 49.316H102.588V50.54H94.65V60.422H93.372V49.316ZM102.03 49.316H103.308V58.928C103.308 59.63 103.164 59.99 102.714 60.206C102.228 60.422 101.472 60.44 100.212 60.422C100.158 60.098 99.996 59.558 99.834 59.216C100.698 59.252 101.472 59.234 101.706 59.234C101.94 59.216 102.03 59.162 102.03 58.928V49.316ZM100.032 44.672L100.788 43.862C101.688 44.312 102.84 44.996 103.47 45.428L102.696 46.328C102.066 45.878 100.878 45.14 100.032 44.672ZM88.494 45.014L89.268 44.06C90.312 44.618 91.77 45.446 92.508 45.968L91.716 47.066C90.996 46.508 89.574 45.626 88.494 45.014ZM87.666 49.91L88.422 48.92C89.502 49.406 90.978 50.198 91.734 50.702L90.96 51.818C90.222 51.296 88.764 50.468 87.666 49.91ZM88.134 59.36C89.034 57.938 90.33 55.562 91.302 53.492L92.328 54.302C91.464 56.228 90.294 58.514 89.322 60.188L88.134 59.36ZM108.186 53.15V52.052L109.068 51.566H120.732L120.714 52.88H110.13C109.068 52.88 108.366 52.97 108.186 53.15ZM114.126 48.92H115.494V58.604C115.494 59.396 115.314 59.792 114.738 60.026C114.198 60.26 113.262 60.296 111.984 60.296C111.912 59.9 111.678 59.288 111.48 58.892C112.506 58.928 113.46 58.928 113.766 58.91C114.054 58.892 114.126 58.82 114.126 58.568V48.92ZM109.626 54.302L110.958 54.68C110.094 56.57 108.726 58.478 107.412 59.702C107.16 59.468 106.602 59.018 106.278 58.82C107.61 57.722 108.87 56.012 109.626 54.302ZM116.988 54.86L118.104 54.284C119.49 55.652 121.146 57.542 121.92 58.802L120.714 59.486C119.994 58.226 118.374 56.264 116.988 54.86ZM106.386 46.274H121.488V47.57H106.386V46.274ZM108.186 53.15C108.096 52.844 107.862 52.124 107.682 51.746C108.096 51.638 108.492 51.116 109.05 50.324C109.626 49.568 111.444 46.616 112.56 43.79L113.982 44.384C112.668 47.3 110.94 50.234 109.284 52.322V52.34C109.284 52.34 108.186 52.844 108.186 53.15ZM124.477 61.2148L125.013 57.0752H126.814L125.733 61.2148H124.477ZM140.741 49.712H148.139V51.062H140.741V49.712ZM133.199 58.244H149.363V59.594H133.199V58.244ZM139.967 44.15H141.389V58.964H139.967V44.15ZM157.841 46.13H167.417V47.354H157.841V46.13ZM158.273 48.992H165.491V50.18H158.273V48.992ZM155.411 52.718H167.759V53.96H155.411V52.718ZM157.283 56.714H167.633V57.884H157.283V56.714ZM158.237 43.88L159.569 44.168C158.849 46.508 157.679 48.776 156.401 50.216C156.149 50 155.573 49.604 155.231 49.442C156.545 48.11 157.625 46.004 158.237 43.88ZM157.715 48.992H158.975C158.615 52.088 158.039 56.3 157.607 58.712L156.311 58.604C156.797 56.174 157.409 51.998 157.715 48.992ZM161.297 49.478H162.485C162.269 51.98 161.945 55.364 161.657 57.29H160.469C160.775 55.31 161.135 51.908 161.297 49.478ZM165.077 48.992H166.337C166.337 48.992 166.337 49.46 166.319 49.64C166.049 56.642 165.761 59.018 165.149 59.756C164.807 60.206 164.447 60.35 163.907 60.386C163.367 60.44 162.503 60.422 161.603 60.386C161.585 60.026 161.459 59.54 161.261 59.234C162.179 59.306 163.007 59.306 163.367 59.306C163.691 59.306 163.871 59.27 164.033 59.054C164.537 58.496 164.825 56.03 165.077 49.262V48.992ZM151.847 45.05L152.621 44.078C153.701 44.582 155.015 45.392 155.645 46.022L154.835 47.102C154.205 46.454 152.927 45.59 151.847 45.05ZM150.983 49.856L151.739 48.866C152.819 49.316 154.151 50.09 154.799 50.684L154.007 51.764C153.377 51.152 152.081 50.36 150.983 49.856ZM151.397 59.45C152.207 58.046 153.377 55.652 154.205 53.6L155.285 54.356C154.511 56.264 153.467 58.55 152.603 60.224L151.397 59.45Z" fill="black"/>
<path d="M95.334 83.15H96.792V97.568C96.792 98.576 96.522 98.972 95.874 99.188C95.226 99.422 94.11 99.458 92.4 99.458C92.328 99.062 92.076 98.432 91.842 98.036C93.174 98.09 94.47 98.072 94.83 98.054C95.208 98.054 95.334 97.928 95.334 97.568V83.15ZM99.69 87.74L100.986 87.236C102.552 89.774 104.082 93.068 104.55 95.246L103.11 95.822C102.678 93.698 101.22 90.314 99.69 87.74ZM90.618 87.362L92.13 87.614C91.536 90.26 90.492 93.518 88.854 95.534C88.53 95.282 87.936 94.958 87.576 94.814C89.178 92.906 90.168 89.792 90.618 87.362ZM119.49 83.006L120.39 84.086C117.024 84.734 111.786 85.094 107.43 85.202C107.394 84.878 107.25 84.374 107.124 84.086C111.426 83.942 116.61 83.582 119.49 83.006ZM113.262 84.482H114.612V99.458H113.262V84.482ZM106.062 86.768H121.974V88.01H106.062V86.768ZM110.022 88.766H111.282V98.162H110.022V88.766ZM106.296 91.07H110.724V92.276H106.296V91.07ZM105.882 96.074C107.052 95.768 108.78 95.228 110.49 94.688L110.706 95.768C109.23 96.308 107.736 96.884 106.494 97.316L105.882 96.074ZM120.84 90.368L121.812 91.358C120.606 92.114 118.932 92.816 117.492 93.356C117.42 93.086 117.222 92.672 117.078 92.402C118.41 91.844 119.958 91.052 120.84 90.368ZM116.556 88.784H117.834V96.146C117.834 96.668 117.924 96.758 118.482 96.758C118.734 96.758 120.084 96.758 120.408 96.758C120.894 96.758 120.984 96.488 121.038 94.886C121.308 95.102 121.83 95.318 122.19 95.408C122.064 97.424 121.704 97.982 120.534 97.982C120.228 97.982 118.608 97.982 118.32 97.982C116.934 97.982 116.556 97.568 116.556 96.146V88.784ZM88.5469 120V107.396H92.8711C93.6152 107.396 94.2598 107.499 94.8047 107.704C95.3496 107.909 95.7598 108.182 96.0352 108.521C96.3105 108.855 96.5068 109.189 96.624 109.523C96.7471 109.857 96.8086 110.2 96.8086 110.552C96.8086 111.536 96.4131 112.298 95.6221 112.837C96.9756 113.476 97.6523 114.536 97.6523 116.019C97.6523 117.185 97.2422 118.14 96.4219 118.884C95.6016 119.628 94.459 120 92.9941 120H88.5469ZM90.1641 118.813H92.6865C94.9189 118.813 96.0352 117.882 96.0352 116.019C96.0352 115.169 95.7773 114.551 95.2617 114.164C94.7461 113.771 93.9434 113.563 92.8535 113.54H90.1641V118.813ZM90.1641 112.336H92.5635C93.5596 112.336 94.2451 112.201 94.6201 111.932C95.001 111.656 95.1914 111.196 95.1914 110.552C95.1914 109.878 94.998 109.383 94.6113 109.066C94.2305 108.75 93.5479 108.592 92.5635 108.592C92.3818 108.604 92.1006 108.609 91.7197 108.609H90.1641V112.336ZM99.3486 120V111H100.43L100.649 111.633C101.417 111.047 102.1 110.751 102.697 110.745C103.348 110.745 103.948 110.889 104.499 111.176L103.91 112.389C103.395 112.207 102.92 112.116 102.486 112.116C101.889 112.116 101.341 112.339 100.843 112.784V120H99.3486ZM106.811 118.893C105.926 117.973 105.483 116.842 105.483 115.5C105.483 114.158 105.926 113.027 106.811 112.107C107.701 111.188 108.841 110.728 110.229 110.728C111.612 110.728 112.752 111.19 113.648 112.116C114.551 113.042 115.002 114.17 115.002 115.5C115.002 116.83 114.551 117.958 113.648 118.884C112.752 119.81 111.612 120.272 110.229 120.272C108.835 120.272 107.695 119.812 106.811 118.893ZM107.83 113.083C107.232 113.733 106.934 114.539 106.934 115.5C106.934 116.461 107.232 117.27 107.83 117.926C108.434 118.576 109.233 118.901 110.229 118.901C111.214 118.901 112.008 118.576 112.611 117.926C113.221 117.27 113.525 116.461 113.525 115.5C113.525 114.539 113.221 113.733 112.611 113.083C112.008 112.427 111.214 112.099 110.229 112.099C109.233 112.099 108.434 112.427 107.83 113.083ZM118.271 118.893C117.387 117.973 116.944 116.842 116.944 115.5C116.944 114.158 117.387 113.027 118.271 112.107C119.162 111.188 120.302 110.728 121.69 110.728C123.073 110.728 124.213 111.19 125.109 112.116C126.012 113.042 126.463 114.17 126.463 115.5C126.463 116.83 126.012 117.958 125.109 118.884C124.213 119.81 123.073 120.272 121.69 120.272C120.296 120.272 119.156 119.812 118.271 118.893ZM119.291 113.083C118.693 113.733 118.395 114.539 118.395 115.5C118.395 116.461 118.693 117.27 119.291 117.926C119.895 118.576 120.694 118.901 121.69 118.901C122.675 118.901 123.469 118.576 124.072 117.926C124.682 117.27 124.986 116.461 124.986 115.5C124.986 114.539 124.682 113.733 124.072 113.083C123.469 112.427 122.675 112.099 121.69 112.099C120.694 112.099 119.895 112.427 119.291 113.083ZM128.59 120V106.5H130.084V114.507L133.424 111H135.48L132.369 114.243L136.307 120H134.435L131.306 115.342L130.084 116.616V120H128.59ZM138.469 120V106.5H139.998V120H138.469ZM142.371 111H144.085L146.546 117.592L149.068 111H150.765L145.579 124.5H143.883L145.808 119.552L142.371 111ZM152.839 120V111H153.92L154.157 111.686C155.142 111.047 156.114 110.728 157.075 110.728C158.071 110.728 158.877 110.965 159.492 111.439C160.113 111.914 160.424 112.638 160.424 113.61V120H158.886V113.61C158.886 112.614 158.282 112.116 157.075 112.116C156.138 112.116 155.224 112.427 154.333 113.048V120H152.839ZM163.307 122.215L163.843 118.075H165.645L164.563 122.215H163.307ZM172.482 120V107.396H174.1L180.419 117.302V107.396H182.036V120H180.419L174.1 110.086V120H172.482ZM184.374 115.465C184.374 114.023 184.758 112.875 185.525 112.02C186.293 111.158 187.307 110.728 188.566 110.728C191.074 110.728 192.328 112.497 192.328 116.036H185.868C185.927 116.78 186.199 117.445 186.686 118.031C187.172 118.611 187.913 118.901 188.909 118.901C190.063 118.901 191.054 118.711 191.88 118.33V119.745C190.978 120.091 190.052 120.267 189.103 120.272C188.276 120.272 187.553 120.144 186.932 119.886C186.316 119.628 185.824 119.273 185.455 118.822C185.092 118.371 184.819 117.864 184.638 117.302C184.462 116.739 184.374 116.127 184.374 115.465ZM185.921 114.85H190.781C190.699 114.047 190.477 113.388 190.113 112.872C189.75 112.356 189.223 112.099 188.531 112.099C187.846 112.099 187.263 112.351 186.782 112.854C186.302 113.358 186.015 114.023 185.921 114.85ZM193.734 111H195.36L197.408 118.128L199.5 111H201.012L203.077 118.128L205.151 111H206.769L203.938 120H202.216L200.238 112.89L198.27 120H196.564L193.734 111ZM212.473 107.396H214.09L217.351 112.802L220.77 107.396H222.387L218.089 114.226V120H216.577V114.226L212.473 107.396ZM225.41 118.893C224.525 117.973 224.083 116.842 224.083 115.5C224.083 114.158 224.525 113.027 225.41 112.107C226.301 111.188 227.44 110.728 228.829 110.728C230.212 110.728 231.352 111.19 232.248 112.116C233.15 113.042 233.602 114.17 233.602 115.5C233.602 116.83 233.15 117.958 232.248 118.884C231.352 119.81 230.212 120.272 228.829 120.272C227.435 120.272 226.295 119.812 225.41 118.893ZM226.43 113.083C225.832 113.733 225.533 114.539 225.533 115.5C225.533 116.461 225.832 117.27 226.43 117.926C227.033 118.576 227.833 118.901 228.829 118.901C229.813 118.901 230.607 118.576 231.211 117.926C231.82 117.27 232.125 116.461 232.125 115.5C232.125 114.539 231.82 113.733 231.211 113.083C230.607 112.427 229.813 112.099 228.829 112.099C227.833 112.099 227.033 112.427 226.43 113.083ZM235.649 120V111H236.73L236.95 111.633C237.718 111.047 238.4 110.751 238.998 110.745C239.648 110.745 240.249 110.889 240.8 111.176L240.211 112.389C239.695 112.207 239.221 112.116 238.787 112.116C238.189 112.116 237.642 112.339 237.144 112.784V120H235.649ZM242.812 120V106.5H244.307V114.507L247.646 111H249.703L246.592 114.243L250.529 120H248.657L245.528 115.342L244.307 116.616V120H242.812Z" fill="black"/>
<path d="M88.3711 161V148.396H89.9883L93.8555 153.96L97.7314 148.396H99.3486V161H97.7314V150.919L94.4707 155.454H93.2314L89.9883 150.937V161H88.3711ZM101.73 152H103.444L105.905 158.592L108.428 152H110.124L104.938 165.5H103.242L105.167 160.552L101.73 152ZM116.637 161V148.396H118.254V154.109H124.556V148.396H126.182V161H124.556V155.296H118.254V161H116.637ZM128.37 156.465C128.37 155.023 128.754 153.875 129.521 153.02C130.289 152.158 131.303 151.728 132.562 151.728C135.07 151.728 136.324 153.497 136.324 157.036H129.864C129.923 157.78 130.195 158.445 130.682 159.031C131.168 159.611 131.909 159.901 132.905 159.901C134.06 159.901 135.05 159.711 135.876 159.33V160.745C134.974 161.091 134.048 161.267 133.099 161.272C132.272 161.272 131.549 161.144 130.928 160.886C130.312 160.628 129.82 160.273 129.451 159.822C129.088 159.371 128.815 158.864 128.634 158.302C128.458 157.739 128.37 157.127 128.37 156.465ZM129.917 155.85H134.777C134.695 155.047 134.473 154.388 134.109 153.872C133.746 153.356 133.219 153.099 132.527 153.099C131.842 153.099 131.259 153.351 130.778 153.854C130.298 154.358 130.011 155.023 129.917 155.85ZM138.214 158.152C138.214 157.35 138.507 156.679 139.093 156.14C139.679 155.601 140.502 155.331 141.562 155.331H143.953V154.646C143.953 154.095 143.845 153.702 143.628 153.468C143.411 153.233 143.01 153.116 142.424 153.116C141.99 153.116 141.331 153.163 140.446 153.257L139.233 153.406V152C139.884 151.953 140.364 151.912 140.675 151.877C141.729 151.783 142.515 151.733 143.03 151.728C143.88 151.728 144.504 151.968 144.902 152.448C145.301 152.929 145.5 153.482 145.5 154.109V161H144.366L144.111 160.121H144.059C143.016 160.83 142.014 161.182 141.053 161.176C140.139 161.176 139.436 160.868 138.943 160.253C138.457 159.632 138.214 158.932 138.214 158.152ZM139.778 158.152C139.778 158.621 139.901 159.043 140.147 159.418C140.394 159.787 140.798 159.972 141.36 159.972C141.759 159.972 142.204 159.887 142.696 159.717C143.188 159.541 143.602 159.339 143.936 159.11H143.953V156.535H141.562C140.373 156.535 139.778 157.074 139.778 158.152ZM148.163 161V152H149.244L149.464 152.633C150.231 152.047 150.914 151.751 151.512 151.745C152.162 151.745 152.763 151.889 153.313 152.176L152.725 153.389C152.209 153.207 151.734 153.116 151.301 153.116C150.703 153.116 150.155 153.339 149.657 153.784V161H148.163ZM154.966 153.389V152H156.495V149.39H158.024V152H160.257V153.389H158.024V158.354C158.024 158.8 158.092 159.122 158.227 159.321C158.367 159.515 158.672 159.611 159.141 159.611H160.072V161H158.455C157.869 161 157.395 160.845 157.031 160.534C156.674 160.224 156.495 159.802 156.495 159.269V153.389H154.966Z" fill="black"/>
<path d="M21 255V206.03H25.98V255H21ZM33.45 255V206.03H35.94V255H33.45ZM43.41 255V206.03H45.9V255H43.41ZM29.466 279.651H33.284V264.047H29.715V262.221H39.26V264.047H35.442V279.651H39.426V281.477H29.466V279.651ZM48.3965 255V206.03H53.3765V255H48.3965ZM55.8665 255V206.03H60.8465V255H55.8665ZM65.8265 255V206.03H70.8065V255H65.8265ZM75.793 255V206.03H80.773V255H75.793ZM85.753 255V206.03H88.243V255H85.753ZM90.733 255V206.03H93.223V255H90.733ZM84.176 279.651H88.409V262.719H84.425V260.976H90.65V279.651H94.8V281.477H84.176V279.651ZM103.189 255V206.03H105.679V255H103.189ZM113.149 255V206.03H123.109V255H113.149ZM125.599 255V206.03H128.089V255H125.599ZM116.884 281.726C115.612 281.726 114.477 281.422 113.481 280.813C112.541 280.204 111.794 279.347 111.24 278.24C110.632 277.133 110.327 275.861 110.327 274.422C110.327 272.983 110.632 271.711 111.24 270.604C111.794 269.497 112.541 268.64 113.481 268.031C114.477 267.367 115.612 267.035 116.884 267.035C118.157 267.035 119.264 267.367 120.204 268.031C121.2 268.64 121.975 269.497 122.528 270.604C123.082 271.711 123.358 272.983 123.358 274.422C123.358 275.861 123.082 277.133 122.528 278.24C121.975 279.347 121.2 280.204 120.204 280.813C119.264 281.422 118.157 281.726 116.884 281.726ZM116.884 279.9C117.659 279.9 118.378 279.651 119.042 279.153C119.651 278.71 120.149 278.074 120.536 277.244C120.868 276.359 121.034 275.39 121.034 274.339C121.034 272.734 120.647 271.434 119.872 270.438C119.098 269.442 118.102 268.944 116.884 268.944C115.667 268.944 114.671 269.442 113.896 270.438C113.122 271.434 112.734 272.734 112.734 274.339C112.734 275.39 112.9 276.359 113.232 277.244C113.62 278.074 114.118 278.71 114.726 279.153C115.335 279.651 116.054 279.9 116.884 279.9ZM130.586 255V206.03H140.546V255H130.586ZM143.036 255V206.03H145.526V255H143.036ZM150.506 255V206.03H152.996V255H150.506ZM150.589 267.367C150.257 269.027 149.565 271.074 148.514 273.509L145.111 281.477H143.368L137.807 267.367H140.048L144.364 278.406L146.688 273.177C147.629 271.074 148.237 269.138 148.514 267.367H150.589ZM157.982 255V206.03H160.472V255H157.982ZM162.962 255V206.03H167.942V255H162.962ZM172.922 255V206.03H175.412V255H172.922ZM172.341 281.809C170.239 281.809 168.579 281.173 167.361 279.9C166.089 278.627 165.452 276.829 165.452 274.505C165.452 272.956 165.757 271.6 166.365 270.438C166.919 269.331 167.693 268.501 168.689 267.948C169.63 267.339 170.709 267.035 171.926 267.035C173.642 267.035 175.025 267.588 176.076 268.695C177.128 269.857 177.653 271.545 177.653 273.758C177.653 273.979 177.653 274.311 177.653 274.754H167.61C167.666 276.469 168.136 277.77 169.021 278.655C169.907 279.54 171.041 279.983 172.424 279.983C173.918 279.983 175.136 279.457 176.076 278.406L177.321 279.651C176.104 281.09 174.444 281.809 172.341 281.809ZM175.412 273.011C175.412 271.683 175.08 270.632 174.416 269.857C173.752 269.082 172.867 268.695 171.76 268.695C170.764 268.695 169.879 269.055 169.104 269.774C168.33 270.493 167.859 271.572 167.693 273.011H175.412ZM185.379 255V206.03H190.359V255H185.379ZM192.849 255V206.03H197.829V255H192.849ZM202.809 255V206.03H207.789V255H202.809ZM212.775 255V206.03H217.755V255H212.775ZM220.245 255V206.03H225.225V255H220.245ZM227.715 255V206.03H237.675V255H227.715ZM232.446 267.367C232.28 268.197 232.087 269.027 231.865 269.857C231.589 270.687 231.229 271.794 230.786 273.177L227.217 283.054C226.775 284.382 226.166 285.35 225.391 285.959C224.617 286.568 223.704 286.872 222.652 286.872C221.324 286.872 220.245 286.457 219.415 285.627L220.411 284.133L220.577 283.884L220.743 283.967C220.799 284.188 220.882 284.354 220.992 284.465C221.103 284.631 221.297 284.769 221.573 284.88C221.961 284.991 222.376 285.046 222.818 285.046C223.538 285.046 224.146 284.769 224.644 284.216C225.087 283.663 225.53 282.777 225.972 281.56L220.162 267.367H222.486L226.885 278.655L228.711 273.011C229.154 271.572 229.486 270.493 229.707 269.774C229.929 268.999 230.095 268.197 230.205 267.367H232.446ZM240.172 255V206.03H242.662V255H240.172ZM250.132 255V206.03H260.092V255H250.132ZM262.582 255V206.03H265.072V255H262.582ZM253.867 281.726C252.594 281.726 251.46 281.422 250.464 280.813C249.523 280.204 248.776 279.347 248.223 278.24C247.614 277.133 247.31 275.861 247.31 274.422C247.31 272.983 247.614 271.711 248.223 270.604C248.776 269.497 249.523 268.64 250.464 268.031C251.46 267.367 252.594 267.035 253.867 267.035C255.14 267.035 256.246 267.367 257.187 268.031C258.183 268.64 258.958 269.497 259.511 270.604C260.064 271.711 260.341 272.983 260.341 274.422C260.341 275.861 260.064 277.133 259.511 278.24C258.958 279.347 258.183 280.204 257.187 280.813C256.246 281.422 255.14 281.726 253.867 281.726ZM253.867 279.9C254.642 279.9 255.361 279.651 256.025 279.153C256.634 278.71 257.132 278.074 257.519 277.244C257.851 276.359 258.017 275.39 258.017 274.339C258.017 272.734 257.63 271.434 256.855 270.438C256.08 269.442 255.084 268.944 253.867 268.944C252.65 268.944 251.654 269.442 250.879 270.438C250.104 271.434 249.717 272.734 249.717 274.339C249.717 275.39 249.883 276.359 250.215 277.244C250.602 278.074 251.1 278.71 251.709 279.153C252.318 279.651 253.037 279.9 253.867 279.9ZM267.568 255V206.03H270.058V255H267.568ZM275.038 255V206.03H284.998V255H275.038ZM289.978 255V206.03H292.468V255H289.978ZM280.35 281.809C278.856 281.809 277.667 281.256 276.781 280.149C275.896 279.042 275.481 277.41 275.536 275.252V267.367H277.694V275.252C277.694 276.912 277.999 278.129 278.607 278.904C279.161 279.679 279.935 280.066 280.931 280.066C281.983 280.066 282.868 279.623 283.587 278.738C284.362 277.908 284.749 276.718 284.749 275.169V267.367H286.907V279.319C286.907 279.817 286.907 280.204 286.907 280.481C286.963 280.813 287.046 281.145 287.156 281.477H285.081C284.915 281.145 284.832 280.813 284.832 280.481C284.777 280.204 284.749 279.817 284.749 279.319C284.307 280.094 283.698 280.702 282.923 281.145C282.149 281.588 281.291 281.809 280.35 281.809Z" fill="black"/>
</svg>
